<svg width="327" height="48" viewBox="0 0 327 48" fill="none" xmlns="http://www.w3.org/2000/svg">
<rect width="327" height="48" rx="8" fill="#FFAA13"/>
<path d="M89.416 28.208C87.7307 28.208 86.3333 27.6533 85.224 26.544C84.1147 25.4133 83.56 24.032 83.56 22.4C83.56 20.7573 84.1147 19.3813 85.224 18.272C86.3227 17.152 87.72 16.592 89.416 16.592C90.4293 16.592 91.3627 16.832 92.216 17.312C93.08 17.792 93.752 18.4427 94.232 19.264L92.632 20.192C92.3333 19.6373 91.896 19.2 91.32 18.88C90.7547 18.5493 90.12 18.384 89.416 18.384C88.232 18.384 87.2613 18.7627 86.504 19.52C85.768 20.2667 85.4 21.2267 85.4 22.4C85.4 23.5733 85.768 24.5333 86.504 25.28C87.2613 26.0373 88.232 26.416 89.416 26.416C90.12 26.416 90.76 26.256 91.336 25.936C91.912 25.6053 92.344 25.1627 92.632 24.608L94.232 25.52C93.7733 26.3307 93.1067 26.9867 92.232 27.488C91.3893 27.968 90.4507 28.208 89.416 28.208ZM99.1508 23.92L102.799 28H100.735L97.4548 24.304V28H95.7268V20H97.4548V23.536L100.559 20H102.671L99.1508 23.92ZM109.657 21.136V20H111.385V28H109.657V26.848C109.006 27.7547 108.073 28.208 106.857 28.208C105.758 28.208 104.819 27.8027 104.041 26.992C103.262 26.1813 102.873 25.184 102.873 24C102.873 22.816 103.262 21.8187 104.041 21.008C104.819 20.1973 105.758 19.792 106.857 19.792C108.073 19.792 109.006 20.24 109.657 21.136ZM105.321 25.84C105.801 26.32 106.403 26.56 107.129 26.56C107.854 26.56 108.457 26.32 108.937 25.84C109.417 25.3493 109.657 24.736 109.657 24C109.657 23.264 109.417 22.656 108.937 22.176C108.457 21.6853 107.854 21.44 107.129 21.44C106.403 21.44 105.801 21.6853 105.321 22.176C104.841 22.656 104.601 23.264 104.601 24C104.601 24.7253 104.841 25.3387 105.321 25.84ZM118.263 23.664V20H119.991V28H118.263V25.296C117.633 25.5307 116.961 25.648 116.247 25.648C115.233 25.648 114.444 25.4027 113.879 24.912C113.313 24.4107 113.031 23.6907 113.031 22.752V20H114.759V22.592C114.759 23.552 115.329 24.032 116.471 24.032C117.121 24.032 117.719 23.9093 118.263 23.664ZM128.344 21.136V20H130.072V28H128.344V26.848C127.693 27.7547 126.76 28.208 125.544 28.208C124.445 28.208 123.507 27.8027 122.728 26.992C121.949 26.1813 121.56 25.184 121.56 24C121.56 22.816 121.949 21.8187 122.728 21.008C123.507 20.1973 124.445 19.792 125.544 19.792C126.76 19.792 127.693 20.24 128.344 21.136ZM124.008 25.84C124.488 26.32 125.091 26.56 125.816 26.56C126.541 26.56 127.144 26.32 127.624 25.84C128.104 25.3493 128.344 24.736 128.344 24C128.344 23.264 128.104 22.656 127.624 22.176C127.144 21.6853 126.541 21.44 125.816 21.44C125.091 21.44 124.488 21.6853 124.008 22.176C123.528 22.656 123.288 23.264 123.288 24C123.288 24.7253 123.528 25.3387 124.008 25.84ZM131.238 20H138.198V21.664H135.59V28H133.862V21.664H131.238V20ZM141.095 22.72H142.855C143.719 22.72 144.418 22.9653 144.951 23.456C145.495 23.936 145.767 24.5707 145.767 25.36C145.767 26.1387 145.495 26.7733 144.951 27.264C144.418 27.7547 143.719 28 142.855 28H139.367V20H141.095V22.72ZM141.095 26.448H142.871C143.213 26.448 143.495 26.3467 143.719 26.144C143.954 25.9413 144.071 25.68 144.071 25.36C144.071 25.04 143.959 24.7787 143.735 24.576C143.511 24.3733 143.223 24.272 142.871 24.272H141.095V26.448ZM151.18 20H158.3V28H156.572V21.632H152.908V28H151.18V20ZM164.833 19.792C165.921 19.792 166.86 20.2027 167.649 21.024C168.428 21.8347 168.817 22.8267 168.817 24C168.817 25.184 168.428 26.1813 167.649 26.992C166.87 27.8027 165.932 28.208 164.833 28.208C163.628 28.208 162.694 27.76 162.033 26.864V31.2H160.305V20H162.033V21.152C162.684 20.2453 163.617 19.792 164.833 19.792ZM162.753 25.84C163.233 26.32 163.836 26.56 164.561 26.56C165.286 26.56 165.889 26.32 166.369 25.84C166.849 25.3493 167.089 24.736 167.089 24C167.089 23.264 166.849 22.656 166.369 22.176C165.889 21.6853 165.286 21.44 164.561 21.44C163.836 21.44 163.233 21.6853 162.753 22.176C162.273 22.656 162.033 23.264 162.033 24C162.033 24.7253 162.273 25.3387 162.753 25.84ZM172.079 25.072L176.175 20H177.503V28H175.807V22.912L171.711 28H170.383V20H172.079V25.072ZM180.132 20H186.26V28H184.532V21.664H181.86V24.64C181.86 25.888 181.588 26.784 181.044 27.328C180.5 27.872 179.705 28.096 178.66 28V26.384C179.151 26.4693 179.519 26.368 179.764 26.08C180.009 25.7813 180.132 25.2747 180.132 24.56V20ZM195.042 26.992C194.231 27.8027 193.234 28.208 192.05 28.208C190.866 28.208 189.868 27.8027 189.058 26.992C188.236 26.1707 187.826 25.1733 187.826 24C187.826 22.8267 188.236 21.8293 189.058 21.008C189.868 20.1973 190.866 19.792 192.05 19.792C193.234 19.792 194.231 20.1973 195.042 21.008C195.863 21.8293 196.274 22.8267 196.274 24C196.274 25.1733 195.863 26.1707 195.042 26.992ZM189.554 24C189.554 24.7253 189.794 25.328 190.274 25.808C190.754 26.288 191.346 26.528 192.05 26.528C192.754 26.528 193.346 26.288 193.826 25.808C194.306 25.328 194.546 24.7253 194.546 24C194.546 23.2747 194.306 22.672 193.826 22.192C193.346 21.712 192.754 21.472 192.05 21.472C191.346 21.472 190.754 21.712 190.274 22.192C189.794 22.672 189.554 23.2747 189.554 24ZM204.38 23.92L207.5 28H205.532L202.812 24.304V28H201.116V24.336L198.396 28H196.428L199.548 23.92L196.588 20H198.556L201.116 23.504V20H202.812V23.52L205.372 20H207.34L204.38 23.92ZM215.83 24.736H209.462C209.59 25.3333 209.878 25.7973 210.326 26.128C210.784 26.4587 211.35 26.624 212.022 26.624C212.928 26.624 213.616 26.2933 214.086 25.632L215.51 26.464C214.731 27.6267 213.563 28.208 212.006 28.208C210.715 28.208 209.664 27.8133 208.854 27.024C208.054 26.224 207.654 25.216 207.654 24C207.654 22.816 208.048 21.8187 208.838 21.008C209.616 20.1973 210.63 19.792 211.878 19.792C213.04 19.792 214 20.2027 214.758 21.024C215.515 21.8453 215.894 22.8427 215.894 24.016C215.894 24.2293 215.872 24.4693 215.83 24.736ZM209.446 23.328H214.15C214.032 22.6987 213.766 22.2133 213.35 21.872C212.944 21.5307 212.448 21.36 211.862 21.36C211.222 21.36 210.688 21.536 210.262 21.888C209.835 22.24 209.563 22.72 209.446 23.328ZM222.806 23.184V20H224.534V28H222.806V24.816H219.142V28H217.414V20H219.142V23.184H222.806ZM228.235 25.072L232.331 20H233.659V28H231.963V22.912L227.867 28H226.539V20H228.235V25.072ZM243.392 24.736H237.024C237.152 25.3333 237.44 25.7973 237.888 26.128C238.347 26.4587 238.912 26.624 239.584 26.624C240.491 26.624 241.179 26.2933 241.648 25.632L243.072 26.464C242.294 27.6267 241.126 28.208 239.568 28.208C238.278 28.208 237.227 27.8133 236.416 27.024C235.616 26.224 235.216 25.216 235.216 24C235.216 22.816 235.611 21.8187 236.4 21.008C237.179 20.1973 238.192 19.792 239.44 19.792C240.603 19.792 241.563 20.2027 242.32 21.024C243.078 21.8453 243.456 22.8427 243.456 24.016C243.456 24.2293 243.435 24.4693 243.392 24.736ZM237.008 23.328H241.712C241.595 22.6987 241.328 22.2133 240.912 21.872C240.507 21.5307 240.011 21.36 239.424 21.36C238.784 21.36 238.251 21.536 237.824 21.888C237.398 22.24 237.126 22.72 237.008 23.328Z" fill="white"/>
</svg>
