<svg width="327" height="48" viewBox="0 0 327 48" fill="none" xmlns="http://www.w3.org/2000/svg">
<rect width="327" height="48" rx="8" fill="#50A7EA"/>
<path d="M94.6148 23.4074V27.2593C94.6148 27.9138 94.0668 28.4445 93.3908 28.4445C92.7148 28.4445 92.1667 27.9138 92.1667 27.2593V23.4074C92.1667 22.7529 92.7148 22.2222 93.3908 22.2222C94.0668 22.2222 94.6148 22.7529 94.6148 23.4074Z" fill="white"/>
<path d="M110.833 23.5556V27.4074C110.833 28.062 110.285 28.5926 109.609 28.5926C108.933 28.5926 108.385 28.062 108.385 27.4074V23.5556C108.385 22.901 108.933 22.3704 109.609 22.3704C110.285 22.3704 110.833 22.901 110.833 23.5556Z" fill="white"/>
<path fill-rule="evenodd" clip-rule="evenodd" d="M107.467 22.2222V27.7037C107.467 29.3401 106.097 30.6667 104.407 30.6667H98.593C96.9029 30.6667 95.5329 29.3401 95.5329 27.7037V22.2222C95.5329 19.0313 98.2045 16.4445 101.5 16.4445C104.796 16.4445 107.467 19.0313 107.467 22.2222ZM101.959 18.2222H101.041C99.013 18.2222 97.3689 19.8141 97.3689 21.7778V22.963C97.3689 23.7812 98.054 24.4445 98.899 24.4445H104.101C104.946 24.4445 105.631 23.7812 105.631 22.963V21.7778C105.631 19.8141 103.987 18.2222 101.959 18.2222Z" fill="white"/>
<path d="M104.407 21.7778C104.407 22.2687 104.065 22.6667 103.642 22.6667C103.22 22.6667 102.877 22.2687 102.877 21.7778C102.877 21.2869 103.22 20.8889 103.642 20.8889C104.065 20.8889 104.407 21.2869 104.407 21.7778Z" fill="white"/>
<path d="M100.123 21.7778C100.123 22.2687 99.7805 22.6667 99.358 22.6667C98.9355 22.6667 98.593 22.2687 98.593 21.7778C98.593 21.2869 98.9355 20.8889 99.358 20.8889C99.7805 20.8889 100.123 21.2869 100.123 21.7778Z" fill="white"/>
<path d="M130.932 17.49V19.164H127.602V30H125.55V19.164H122.202V17.49H130.932ZM142.1 24.798C142.1 25.17 142.076 25.506 142.028 25.806H134.45C134.51 26.598 134.804 27.234 135.332 27.714C135.86 28.194 136.508 28.434 137.276 28.434C138.38 28.434 139.16 27.972 139.616 27.048H141.83C141.53 27.96 140.984 28.71 140.192 29.298C139.412 29.874 138.44 30.162 137.276 30.162C136.328 30.162 135.476 29.952 134.72 29.532C133.976 29.1 133.388 28.5 132.956 27.732C132.536 26.952 132.326 26.052 132.326 25.032C132.326 24.012 132.53 23.118 132.938 22.35C133.358 21.57 133.94 20.97 134.684 20.55C135.44 20.13 136.304 19.92 137.276 19.92C138.212 19.92 139.046 20.124 139.778 20.532C140.51 20.94 141.08 21.516 141.488 22.26C141.896 22.992 142.1 23.838 142.1 24.798ZM139.958 24.15C139.946 23.394 139.676 22.788 139.148 22.332C138.62 21.876 137.966 21.648 137.186 21.648C136.478 21.648 135.872 21.876 135.368 22.332C134.864 22.776 134.564 23.382 134.468 24.15H139.958ZM146.172 16.68V30H144.12V16.68H146.172ZM157.956 24.798C157.956 25.17 157.932 25.506 157.884 25.806H150.306C150.366 26.598 150.66 27.234 151.188 27.714C151.716 28.194 152.364 28.434 153.132 28.434C154.236 28.434 155.016 27.972 155.472 27.048H157.686C157.386 27.96 156.84 28.71 156.048 29.298C155.268 29.874 154.296 30.162 153.132 30.162C152.184 30.162 151.332 29.952 150.576 29.532C149.832 29.1 149.244 28.5 148.812 27.732C148.392 26.952 148.182 26.052 148.182 25.032C148.182 24.012 148.386 23.118 148.794 22.35C149.214 21.57 149.796 20.97 150.54 20.55C151.296 20.13 152.16 19.92 153.132 19.92C154.068 19.92 154.902 20.124 155.634 20.532C156.366 20.94 156.936 21.516 157.344 22.26C157.752 22.992 157.956 23.838 157.956 24.798ZM155.814 24.15C155.802 23.394 155.532 22.788 155.004 22.332C154.476 21.876 153.822 21.648 153.042 21.648C152.334 21.648 151.728 21.876 151.224 22.332C150.72 22.776 150.42 23.382 150.324 24.15H155.814ZM163.971 19.92C164.739 19.92 165.417 20.076 166.005 20.388C166.605 20.688 167.073 21.066 167.409 21.522V20.082H169.479V30.162C169.479 31.074 169.287 31.884 168.903 32.592C168.519 33.312 167.961 33.876 167.229 34.284C166.509 34.692 165.645 34.896 164.637 34.896C163.293 34.896 162.177 34.578 161.289 33.942C160.401 33.318 159.897 32.466 159.777 31.386H161.811C161.967 31.902 162.297 32.316 162.801 32.628C163.317 32.952 163.929 33.114 164.637 33.114C165.465 33.114 166.131 32.862 166.635 32.358C167.151 31.854 167.409 31.122 167.409 30.162V28.506C167.061 28.974 166.587 29.37 165.987 29.694C165.399 30.006 164.727 30.162 163.971 30.162C163.107 30.162 162.315 29.946 161.595 29.514C160.887 29.07 160.323 28.458 159.903 27.678C159.495 26.886 159.291 25.992 159.291 24.996C159.291 24 159.495 23.118 159.903 22.35C160.323 21.582 160.887 20.988 161.595 20.568C162.315 20.136 163.107 19.92 163.971 19.92ZM167.409 25.032C167.409 24.348 167.265 23.754 166.977 23.25C166.701 22.746 166.335 22.362 165.879 22.098C165.423 21.834 164.931 21.702 164.403 21.702C163.875 21.702 163.383 21.834 162.927 22.098C162.471 22.35 162.099 22.728 161.811 23.232C161.535 23.724 161.397 24.312 161.397 24.996C161.397 25.68 161.535 26.28 161.811 26.796C162.099 27.312 162.471 27.708 162.927 27.984C163.395 28.248 163.887 28.38 164.403 28.38C164.931 28.38 165.423 28.248 165.879 27.984C166.335 27.72 166.701 27.336 166.977 26.832C167.265 26.316 167.409 25.716 167.409 25.032ZM174.226 21.522C174.526 21.018 174.922 20.628 175.414 20.352C175.918 20.064 176.512 19.92 177.196 19.92V22.044H176.674C175.87 22.044 175.258 22.248 174.838 22.656C174.43 23.064 174.226 23.772 174.226 24.78V30H172.174V20.082H174.226V21.522ZM178.398 24.996C178.398 24 178.602 23.118 179.01 22.35C179.43 21.582 179.994 20.988 180.702 20.568C181.422 20.136 182.214 19.92 183.078 19.92C183.858 19.92 184.536 20.076 185.112 20.388C185.7 20.688 186.168 21.066 186.516 21.522V20.082H188.586V30H186.516V28.524C186.168 28.992 185.694 29.382 185.094 29.694C184.494 30.006 183.81 30.162 183.042 30.162C182.19 30.162 181.41 29.946 180.702 29.514C179.994 29.07 179.43 28.458 179.01 27.678C178.602 26.886 178.398 25.992 178.398 24.996ZM186.516 25.032C186.516 24.348 186.372 23.754 186.084 23.25C185.808 22.746 185.442 22.362 184.986 22.098C184.53 21.834 184.038 21.702 183.51 21.702C182.982 21.702 182.49 21.834 182.034 22.098C181.578 22.35 181.206 22.728 180.918 23.232C180.642 23.724 180.504 24.312 180.504 24.996C180.504 25.68 180.642 26.28 180.918 26.796C181.206 27.312 181.578 27.708 182.034 27.984C182.502 28.248 182.994 28.38 183.51 28.38C184.038 28.38 184.53 28.248 184.986 27.984C185.442 27.72 185.808 27.336 186.084 26.832C186.372 26.316 186.516 25.716 186.516 25.032ZM203.288 19.92C204.068 19.92 204.764 20.082 205.376 20.406C206 20.73 206.486 21.21 206.834 21.846C207.194 22.482 207.374 23.25 207.374 24.15V30H205.34V24.456C205.34 23.568 205.118 22.89 204.674 22.422C204.23 21.942 203.624 21.702 202.856 21.702C202.088 21.702 201.476 21.942 201.02 22.422C200.576 22.89 200.354 23.568 200.354 24.456V30H198.32V24.456C198.32 23.568 198.098 22.89 197.654 22.422C197.21 21.942 196.604 21.702 195.836 21.702C195.068 21.702 194.456 21.942 194 22.422C193.556 22.89 193.334 23.568 193.334 24.456V30H191.282V20.082H193.334V21.216C193.67 20.808 194.096 20.49 194.612 20.262C195.128 20.034 195.68 19.92 196.268 19.92C197.06 19.92 197.768 20.088 198.392 20.424C199.016 20.76 199.496 21.246 199.832 21.882C200.132 21.282 200.6 20.808 201.236 20.46C201.872 20.1 202.556 19.92 203.288 19.92ZM221.357 23.574C222.029 23.694 222.599 24.048 223.067 24.636C223.535 25.224 223.769 25.89 223.769 26.634C223.769 27.27 223.601 27.846 223.265 28.362C222.941 28.866 222.467 29.268 221.843 29.568C221.219 29.856 220.493 30 219.665 30H214.661V17.49H219.431C220.283 17.49 221.015 17.634 221.627 17.922C222.239 18.21 222.701 18.6 223.013 19.092C223.325 19.572 223.481 20.112 223.481 20.712C223.481 21.432 223.289 22.032 222.905 22.512C222.521 22.992 222.005 23.346 221.357 23.574ZM216.713 22.746H219.251C219.923 22.746 220.445 22.596 220.817 22.296C221.201 21.984 221.393 21.54 221.393 20.964C221.393 20.4 221.201 19.962 220.817 19.65C220.445 19.326 219.923 19.164 219.251 19.164H216.713V22.746ZM219.485 28.326C220.181 28.326 220.727 28.158 221.123 27.822C221.519 27.486 221.717 27.018 221.717 26.418C221.717 25.806 221.507 25.32 221.087 24.96C220.667 24.6 220.109 24.42 219.413 24.42H216.713V28.326H219.485ZM230.3 30.162C229.364 30.162 228.518 29.952 227.762 29.532C227.006 29.1 226.412 28.5 225.98 27.732C225.548 26.952 225.332 26.052 225.332 25.032C225.332 24.024 225.554 23.13 225.998 22.35C226.442 21.57 227.048 20.97 227.816 20.55C228.584 20.13 229.442 19.92 230.39 19.92C231.338 19.92 232.196 20.13 232.964 20.55C233.732 20.97 234.338 21.57 234.782 22.35C235.226 23.13 235.448 24.024 235.448 25.032C235.448 26.04 235.22 26.934 234.764 27.714C234.308 28.494 233.684 29.1 232.892 29.532C232.112 29.952 231.248 30.162 230.3 30.162ZM230.3 28.38C230.828 28.38 231.32 28.254 231.776 28.002C232.244 27.75 232.622 27.372 232.91 26.868C233.198 26.364 233.342 25.752 233.342 25.032C233.342 24.312 233.204 23.706 232.928 23.214C232.652 22.71 232.286 22.332 231.83 22.08C231.374 21.828 230.882 21.702 230.354 21.702C229.826 21.702 229.334 21.828 228.878 22.08C228.434 22.332 228.08 22.71 227.816 23.214C227.552 23.706 227.42 24.312 227.42 25.032C227.42 26.1 227.69 26.928 228.23 27.516C228.782 28.092 229.472 28.38 230.3 28.38ZM239.871 21.756V27.246C239.871 27.618 239.955 27.888 240.123 28.056C240.303 28.212 240.603 28.29 241.023 28.29H242.283V30H240.663C239.739 30 239.031 29.784 238.539 29.352C238.047 28.92 237.801 28.218 237.801 27.246V21.756H236.631V20.082H237.801V17.616H239.871V20.082H242.283V21.756H239.871Z" fill="white"/>
</svg>
