<svg width="214" height="56" viewBox="0 0 214 56" fill="none" xmlns="http://www.w3.org/2000/svg">
<g id="Google Play - rus">
<g clip-path="url(#clip0_746_5982)">
<g id="Google Play - rus_2">
<g id="Group">
<path id="Vector" d="M206.074 0H7.92593C3.54856 0 0 3.13401 0 7V49C0 52.866 3.54856 56 7.92593 56H206.074C210.451 56 214 52.866 214 49V7C214 3.13401 210.451 0 206.074 0Z" fill="black"/>
</g>
<g id="Group_2">
<path id="Vector_2" d="M96.1449 30.45C94.9601 30.4555 93.8035 30.8092 92.821 31.4663C91.8386 32.1235 91.0744 33.0547 90.6248 34.1424C90.1753 35.23 90.0605 36.4255 90.2951 37.5778C90.5297 38.7302 91.103 39.7877 91.9428 40.6171C92.7825 41.4464 93.8511 42.0103 95.0136 42.2376C96.176 42.4649 97.3803 42.3455 98.4744 41.8943C99.5685 41.4432 100.503 40.6806 101.161 39.7027C101.819 38.7248 102.17 37.5756 102.17 36.4C102.181 35.6131 102.033 34.832 101.734 34.1031C101.435 33.3742 100.991 32.7125 100.429 32.1573C99.8669 31.6021 99.1979 31.1649 98.4619 30.8716C97.7259 30.5782 96.9379 30.4349 96.1449 30.45ZM96.1449 40.012C95.4162 40.0625 94.6891 39.8944 94.058 39.5295C93.4269 39.1646 92.921 38.6198 92.6062 37.9658C92.2913 37.3118 92.182 36.579 92.2924 35.8626C92.4029 35.1462 92.728 34.4793 93.2255 33.9486C93.723 33.418 94.3699 33.0481 95.0821 32.8871C95.7943 32.726 96.5388 32.7813 97.2189 33.0457C97.899 33.3101 98.4833 33.7714 98.8956 34.3696C99.308 34.9678 99.5295 35.6752 99.5313 36.4C99.554 36.8592 99.4838 37.3183 99.3249 37.7502C99.166 38.1821 98.9215 38.578 98.6059 38.9146C98.2903 39.2513 97.9099 39.5218 97.4872 39.7103C97.0646 39.8987 96.6082 40.0013 96.1449 40.012ZM83.0086 30.45C81.8232 30.4528 80.6652 30.8041 79.6809 31.4595C78.6966 32.115 77.9301 33.0452 77.4784 34.1327C77.0267 35.2202 76.91 36.4161 77.1429 37.5693C77.3759 38.7226 77.9482 39.7815 78.7874 40.6122C79.6266 41.4429 80.6951 42.0082 81.858 42.2367C83.0208 42.4651 84.2259 42.3465 85.3208 41.8957C86.4157 41.445 87.3514 40.6823 88.0098 39.7042C88.6681 38.726 89.0194 37.5762 89.0194 36.4C89.0309 35.6131 88.8827 34.832 88.5837 34.1031C88.2846 33.3742 87.8408 32.7125 87.2786 32.1573C86.7164 31.6021 86.0475 31.1649 85.3115 30.8716C84.5755 30.5782 83.7875 30.4349 82.9945 30.45H83.0086ZM83.0086 40.012C82.2796 40.0654 81.5512 39.8998 80.9184 39.5368C80.2856 39.1737 79.7775 38.63 79.4605 37.9765C79.1434 37.323 79.0319 36.5899 79.1406 35.8726C79.2494 35.1554 79.5732 34.4872 80.0699 33.9552C80.5667 33.4231 81.2134 33.0517 81.9259 32.8894C82.6384 32.7271 83.3836 32.7814 84.0645 33.0452C84.7455 33.3089 85.3306 33.77 85.7437 34.3684C86.1569 34.9668 86.3789 35.6747 86.3809 36.4C86.4036 36.8592 86.3334 37.3183 86.1745 37.7502C86.0155 38.1821 85.7711 38.578 85.4554 38.9146C85.1398 39.2513 84.7595 39.5218 84.3368 39.7103C83.9142 39.8987 83.4577 40.0013 82.9945 40.012H83.0086ZM67.3607 32.284V34.804H73.4562C73.3606 35.9909 72.8634 37.1109 72.0452 37.982C71.4354 38.5983 70.7023 39.0811 69.893 39.3994C69.0838 39.7177 68.2164 39.8644 67.3466 39.83C65.5504 39.83 63.8277 39.122 62.5576 37.8617C61.2874 36.6015 60.5739 34.8922 60.5739 33.11C60.5739 31.3277 61.2874 29.6185 62.5576 28.3582C63.8277 27.098 65.5504 26.39 67.3466 26.39C69.0649 26.3622 70.7242 27.0117 71.9605 28.196L73.7525 26.418C72.9179 25.5794 71.9221 24.9156 70.8242 24.4659C69.7262 24.0162 68.5485 23.7898 67.3607 23.8C66.1064 23.7515 64.855 23.9549 63.6817 24.3977C62.5085 24.8406 61.4373 25.514 60.5326 26.3774C59.6279 27.2408 58.9081 28.2766 58.4165 29.4227C57.9248 30.5687 57.6714 31.8014 57.6714 33.047C57.6714 34.2925 57.9248 35.5253 58.4165 36.6713C58.9081 37.8174 59.6279 38.8531 60.5326 39.7166C61.4373 40.58 62.5085 41.2533 63.6817 41.6962C64.855 42.1391 66.1064 42.3424 67.3607 42.294C68.5685 42.3481 69.7739 42.145 70.8959 41.6982C72.0179 41.2515 73.0304 40.5715 73.8654 39.704C75.3436 38.0925 76.1329 35.974 76.0665 33.796C76.0711 33.2654 76.0238 32.7356 75.9254 32.214L67.3607 32.284ZM131.293 34.244C130.925 33.1698 130.237 32.2319 129.319 31.5544C128.402 30.8769 127.299 30.4917 126.157 30.45C125.385 30.4485 124.621 30.6041 123.912 30.9071C123.203 31.2102 122.565 31.6543 122.036 32.2119C121.507 32.7696 121.099 33.429 120.837 34.1493C120.575 34.8697 120.464 35.6357 120.513 36.4C120.496 37.1825 120.638 37.9603 120.93 38.6872C121.223 39.414 121.66 40.0748 122.216 40.6302C122.772 41.1856 123.435 41.6241 124.165 41.9196C124.895 42.2151 125.678 42.3615 126.467 42.35C127.454 42.3553 128.427 42.1176 129.299 41.6583C130.17 41.1989 130.914 40.5323 131.462 39.718L129.416 38.318C129.111 38.8231 128.678 39.2409 128.161 39.5304C127.645 39.82 127.061 39.9715 126.467 39.97C125.856 39.9931 125.252 39.8332 124.733 39.5111C124.215 39.189 123.806 38.7196 123.56 38.164L131.589 34.874L131.293 34.244ZM123.109 36.232C123.08 35.799 123.139 35.3646 123.282 34.9544C123.424 34.5442 123.648 34.1663 123.94 33.843C124.232 33.5197 124.585 33.2573 124.981 33.0714C125.376 32.8854 125.804 32.7795 126.241 32.76C126.696 32.7302 127.15 32.8338 127.547 33.0578C127.943 33.2818 128.264 33.6164 128.471 34.02L123.109 36.232ZM116.59 42H119.229V24.5H116.59V42ZM112.273 31.78H112.174C111.776 31.3388 111.289 30.9861 110.744 30.7448C110.2 30.5035 109.61 30.3792 109.013 30.38C107.471 30.4542 106.017 31.1142 104.952 32.2232C103.887 33.3322 103.293 34.8052 103.293 36.337C103.293 37.8687 103.887 39.3417 104.952 40.4508C106.017 41.5598 107.471 42.2198 109.013 42.294C109.611 42.304 110.204 42.1838 110.75 41.9419C111.296 41.7 111.782 41.3423 112.174 40.894H112.258V41.748C112.258 44.03 111.031 45.248 109.055 45.248C108.398 45.2327 107.759 45.0235 107.221 44.6471C106.684 44.2706 106.271 43.7439 106.036 43.134L103.736 44.086C104.169 45.1309 104.907 46.0236 105.854 46.6497C106.802 47.2758 107.917 47.6067 109.055 47.6C112.146 47.6 114.699 45.794 114.699 41.398V30.8H112.273V31.78ZM109.253 40.012C108.343 39.9324 107.496 39.5174 106.879 38.8488C106.262 38.1802 105.919 37.3066 105.919 36.4C105.919 35.4934 106.262 34.6197 106.879 33.9511C107.496 33.2826 108.343 32.8676 109.253 32.788C109.704 32.811 110.146 32.9233 110.553 33.1184C110.96 33.3136 111.323 33.5875 111.622 33.9241C111.92 34.2607 112.148 34.6532 112.291 35.0784C112.434 35.5036 112.49 35.9529 112.456 36.4C112.494 36.849 112.441 37.301 112.298 37.7288C112.156 38.1566 111.927 38.5512 111.626 38.8889C111.326 39.2265 110.959 39.5001 110.549 39.6932C110.138 39.8862 109.693 39.9947 109.239 40.012H109.253ZM143.653 24.5H137.346V42H139.984V35.364H143.667C144.419 35.4176 145.174 35.3169 145.885 35.0682C146.596 34.8195 147.248 34.4281 147.8 33.9185C148.352 33.4088 148.792 32.7918 149.093 32.106C149.394 31.4201 149.549 30.68 149.549 29.932C149.549 29.1839 149.394 28.4439 149.093 27.758C148.792 27.0721 148.352 26.4551 147.8 25.9455C147.248 25.4358 146.596 25.0445 145.885 24.7958C145.174 24.5471 144.419 24.4464 143.667 24.5H143.653ZM143.653 32.9H139.97V26.936H143.709C144.512 26.936 145.282 27.2524 145.849 27.8155C146.417 28.3787 146.736 29.1425 146.736 29.939C146.736 30.7354 146.417 31.4993 145.849 32.0624C145.282 32.6256 144.512 32.942 143.709 32.942L143.653 32.9ZM159.922 30.38C158.961 30.323 158.005 30.5457 157.17 31.0208C156.335 31.4958 155.658 32.2025 155.223 33.054L157.565 34.02C157.796 33.5977 158.146 33.2511 158.572 33.0224C158.998 32.7937 159.481 32.6928 159.964 32.732C160.299 32.6932 160.638 32.7209 160.962 32.8136C161.286 32.9064 161.588 33.0622 161.851 33.272C162.114 33.4818 162.332 33.7414 162.492 34.0357C162.653 34.33 162.753 34.653 162.786 34.986V35.168C161.938 34.7228 160.993 34.492 160.034 34.496C157.509 34.496 154.955 35.896 154.955 38.43C154.98 38.9703 155.114 39.5002 155.349 39.9883C155.583 40.4764 155.915 40.9128 156.322 41.2717C156.73 41.6306 157.206 41.9048 157.723 42.078C158.239 42.2512 158.785 42.3199 159.329 42.28C159.993 42.3273 160.659 42.1963 161.254 41.9007C161.85 41.6051 162.355 41.1558 162.715 40.6H162.8V42H165.34V35.266C165.34 32.2 162.998 30.422 159.992 30.422L159.922 30.38ZM159.597 39.97C158.736 39.97 157.537 39.536 157.537 38.486C157.537 37.086 159.033 36.624 160.359 36.624C161.197 36.6035 162.026 36.8065 162.758 37.212C162.669 37.9699 162.308 38.6707 161.74 39.1853C161.172 39.6998 160.436 39.9934 159.668 40.012L159.597 39.97ZM174.596 30.8L171.576 38.388H171.492L168.359 30.8H165.537L170.236 41.412L167.555 47.306H170.306L177.531 30.8H174.596ZM150.877 42H153.516V24.5H150.877V42Z" fill="white"/>
<g id="Vector_3">
<path d="M59.417 19.978H58.3729V17.178H59.2618C59.6672 16.7518 59.9733 16.2426 60.1586 15.6862C60.3438 15.1298 60.4038 14.5399 60.3342 13.958V9.8H65.9781V17.164H66.9235V19.964H65.8794V18.2H59.417V19.978ZM61.3783 14C61.4442 15.1293 61.1638 16.2519 60.5741 17.22H64.807V10.836H61.3783V14ZM75.3612 17.108C74.5363 17.9219 73.4203 18.3787 72.257 18.3787C71.0937 18.3787 69.9777 17.9219 69.1529 17.108C68.3511 16.2659 67.9044 15.1514 67.9044 13.993C67.9044 12.8346 68.3511 11.7201 69.1529 10.878C69.5594 10.4716 70.043 10.1491 70.5758 9.92904C71.1086 9.70895 71.6799 9.59564 72.257 9.59564C72.8341 9.59564 73.4055 9.70895 73.9383 9.92904C74.471 10.1491 74.9546 10.4716 75.3612 10.878C76.1662 11.7185 76.615 12.8336 76.615 13.993C76.615 15.1524 76.1662 16.2675 75.3612 17.108ZM69.9571 16.408C70.568 17.0116 71.395 17.3504 72.257 17.3504C73.1191 17.3504 73.9461 17.0116 74.557 16.408C75.1598 15.7486 75.4937 14.8902 75.4937 14C75.4937 13.1098 75.1598 12.2514 74.557 11.592C73.9461 10.9884 73.1191 10.6496 72.257 10.6496C71.395 10.6496 70.568 10.9884 69.9571 11.592C69.3543 12.2514 69.0204 13.1098 69.0204 14C69.0204 14.8902 69.3543 15.7486 69.9571 16.408ZM82.0916 18.382C81.5091 18.3935 80.9303 18.2879 80.3901 18.0716C79.8498 17.8552 79.3592 17.5326 78.9479 17.1232C78.5366 16.7138 78.2131 16.2261 77.9968 15.6893C77.7805 15.1525 77.6759 14.5779 77.6893 14C77.6759 13.4221 77.7805 12.8474 77.9968 12.3107C78.2131 11.7739 78.5366 11.2862 78.9479 10.8768C79.3592 10.4673 79.8498 10.1448 80.3901 9.92844C80.9303 9.71211 81.5091 9.60651 82.0916 9.618C82.682 9.60349 83.2681 9.72193 83.8057 9.96441C84.3433 10.2069 84.8186 10.5671 85.1958 11.018L84.4339 11.746C84.1552 11.3949 83.7959 11.1152 83.3859 10.9301C82.976 10.745 82.5274 10.6599 82.0775 10.682C81.6444 10.6708 81.2135 10.747 80.8109 10.9058C80.4084 11.0646 80.0424 11.3028 79.7353 11.606C79.1235 12.2693 78.7842 13.1359 78.7842 14.035C78.7842 14.9341 79.1235 15.8007 79.7353 16.464C80.0424 16.7672 80.4084 17.0054 80.8109 17.1642C81.2135 17.323 81.6444 17.3992 82.0775 17.388C82.5742 17.3836 83.0636 17.2695 83.5102 17.054C83.9569 16.8384 84.3495 16.5269 84.6596 16.142L85.4216 16.898C85.0375 17.3602 84.5559 17.733 84.0106 17.99C83.4083 18.2607 82.7527 18.3946 82.0916 18.382ZM89.8521 18.2H88.7656V10.836H86.3952V9.8H92.2084V10.836H89.8521V18.2ZM99.6867 9.8L96.4837 16.884C96.3555 17.303 96.0993 17.6723 95.7505 17.9406C95.4017 18.2089 94.9775 18.3632 94.5366 18.382C94.2449 18.3783 93.957 18.3164 93.69 18.2L93.9722 17.206C94.1436 17.3051 94.3381 17.3581 94.5366 17.36C94.744 17.3755 94.9511 17.3266 95.1292 17.22C95.2992 17.0772 95.4302 16.8943 95.5101 16.688L95.8206 16.016L92.9986 9.814H94.2826L96.3708 14.63L98.4027 9.8H99.6867ZM100.914 18.2V9.8H107.038V18.2H105.951V10.836H102.001V18.2H100.914ZM108.971 18.2V9.8H110.057V13.398H114.29V9.8H115.377V18.2H114.29V14.406H110.057V18.2H108.971ZM124.252 17.108C123.427 17.9219 122.311 18.3787 121.148 18.3787C119.985 18.3787 118.869 17.9219 118.044 17.108C117.242 16.2659 116.795 15.1514 116.795 13.993C116.795 12.8346 117.242 11.7201 118.044 10.878C118.45 10.4716 118.934 10.1491 119.467 9.92904C119.999 9.70895 120.571 9.59564 121.148 9.59564C121.725 9.59564 122.296 9.70895 122.829 9.92904C123.362 10.1491 123.845 10.4716 124.252 10.878C125.057 11.7185 125.506 12.8336 125.506 13.993C125.506 15.1524 125.057 16.2675 124.252 17.108ZM118.848 16.408C119.459 17.0116 120.286 17.3504 121.148 17.3504C122.01 17.3504 122.837 17.0116 123.448 16.408C124.051 15.7486 124.384 14.8902 124.384 14C124.384 13.1098 124.051 12.2514 123.448 11.592C122.837 10.9884 122.01 10.6496 121.148 10.6496C120.286 10.6496 119.459 10.9884 118.848 11.592C118.245 12.2514 117.911 13.1098 117.911 14C117.911 14.8902 118.245 15.7486 118.848 16.408ZM129.938 18.2V9.8H133C133.636 9.78808 134.252 10.0186 134.722 10.444C134.957 10.647 135.145 10.899 135.272 11.182C135.399 11.4651 135.461 11.7723 135.455 12.082C135.462 12.4552 135.354 12.8215 135.145 13.132C134.938 13.4336 134.649 13.6713 134.312 13.818C134.722 13.9524 135.081 14.2061 135.342 14.546C135.614 14.889 135.758 15.314 135.752 15.75C135.759 16.0727 135.694 16.3931 135.563 16.6883C135.431 16.9835 135.235 17.2463 134.99 17.458C134.498 17.9077 133.852 18.1532 133.184 18.144L129.938 18.2ZM131.025 13.398H133C133.185 13.4056 133.369 13.3733 133.539 13.3032C133.71 13.233 133.863 13.1268 133.988 12.992C134.113 12.8796 134.214 12.7434 134.284 12.5915C134.355 12.4396 134.394 12.2751 134.399 12.1079C134.405 11.9406 134.376 11.7741 134.315 11.6181C134.254 11.4621 134.162 11.3199 134.044 11.2C133.926 11.0677 133.781 10.9627 133.617 10.8925C133.454 10.8224 133.277 10.7887 133.099 10.794H131.081L131.025 13.398ZM131.025 17.164H133.212C133.403 17.1704 133.593 17.1348 133.769 17.0597C133.944 16.9847 134.101 16.8721 134.228 16.73C134.476 16.474 134.618 16.1336 134.623 15.778C134.623 15.4067 134.474 15.0506 134.209 14.788C133.945 14.5255 133.586 14.378 133.212 14.378H131.067L131.025 17.164Z" fill="white"/>
<path fill-rule="evenodd" clip-rule="evenodd" d="M72.257 9.73564C71.6986 9.73564 71.1456 9.84529 70.63 10.0583C70.115 10.271 69.6474 10.5827 69.2542 10.9754C68.478 11.7913 68.0455 12.8709 68.0455 13.993C68.0455 15.1149 68.4779 16.1944 69.2539 17.0103C70.0522 17.7971 71.1318 18.2387 72.257 18.2387C73.3824 18.2387 74.462 17.7971 75.2603 17.0101C76.0395 16.1959 76.4739 15.1159 76.4739 13.993C76.4739 12.87 76.0393 11.7899 75.26 10.9755C74.8668 10.5828 74.3991 10.2711 73.884 10.0583C73.3685 9.84529 72.8155 9.73564 72.257 9.73564ZM70.5216 9.79979C71.0715 9.5726 71.6613 9.45564 72.257 9.45564C72.8527 9.45564 73.4426 9.5726 73.9925 9.79979C74.5425 10.027 75.0417 10.3599 75.4614 10.7794L75.4635 10.7815C76.2934 11.648 76.7561 12.7977 76.7561 13.993C76.7561 15.1883 76.2934 16.338 75.4635 17.2044L75.4608 17.2073C74.6094 18.0473 73.4576 18.5187 72.257 18.5187C71.0565 18.5187 69.9047 18.0472 69.0534 17.2073L69.0502 17.2042C68.2237 16.3361 67.7633 15.1872 67.7633 13.993C67.7633 12.7988 68.2238 11.6499 69.0503 10.7819L69.0527 10.7793C69.4724 10.3599 69.9716 10.027 70.5216 9.79979ZM121.148 9.73564C120.589 9.73564 120.036 9.84529 119.521 10.0583C119.006 10.271 118.538 10.5827 118.145 10.9753C117.369 11.7913 116.936 12.8709 116.936 13.993C116.936 15.1149 117.369 16.1944 118.145 17.0103C118.943 17.7971 120.023 18.2387 121.148 18.2387C122.273 18.2387 123.353 17.797 124.151 17.01C124.93 16.1958 125.365 15.1158 125.365 13.993C125.365 12.87 124.93 11.7899 124.151 10.9756C123.758 10.5828 123.29 10.2711 122.775 10.0583C122.259 9.84529 121.706 9.73564 121.148 9.73564ZM119.412 9.79979C119.962 9.5726 120.552 9.45564 121.148 9.45564C121.744 9.45564 122.333 9.5726 122.883 9.79979C123.433 10.027 123.932 10.3599 124.352 10.7794L124.354 10.7815C125.184 11.648 125.647 12.7977 125.647 13.993C125.647 15.1883 125.184 16.338 124.354 17.2044L124.352 17.2073C123.5 18.0473 122.348 18.5187 121.148 18.5187C119.947 18.5187 118.795 18.0472 117.944 17.2073L117.941 17.2042C117.115 16.3361 116.654 15.1872 116.654 13.993C116.654 12.7988 117.115 11.6499 117.941 10.7819L117.943 10.7793C118.363 10.3599 118.862 10.027 119.412 9.79979ZM83.7473 10.0919C83.2291 9.85813 82.6642 9.74397 82.0951 9.75796L82.0888 9.75811C81.5254 9.747 80.9655 9.849 80.4429 10.0583C79.9202 10.2675 79.4457 10.5796 79.0479 10.9756C78.65 11.3716 78.337 11.8435 78.1278 12.3627C77.9186 12.8819 77.8174 13.4377 77.8304 13.9968L77.8306 14.0032C77.8176 14.5623 77.9186 15.1181 78.1278 15.6373C78.337 16.1565 78.65 16.6284 79.0479 17.0244C79.4457 17.4204 79.9202 17.7325 80.4429 17.9417C80.9655 18.151 81.5254 18.2531 82.0888 18.242L82.0916 18.382L82.0943 18.242C82.734 18.2542 83.3683 18.1247 83.9512 17.863C84.4387 17.633 84.8736 17.3071 85.2297 16.9056L84.6688 16.3491C84.363 16.6954 83.9902 16.978 83.5719 17.1799C83.1068 17.4043 82.5972 17.5232 82.08 17.528C81.6282 17.5395 81.1788 17.46 80.7588 17.2943C80.3385 17.1285 79.9564 16.8798 79.6358 16.5632L79.6311 16.5586C78.9955 15.8695 78.6431 14.9691 78.6431 14.035C78.6431 13.1009 78.9956 12.2006 79.6312 11.5115L79.6357 11.5066C79.9563 11.1901 80.3385 10.9415 80.7588 10.7757C81.1775 10.6105 81.6255 10.531 82.0759 10.5419C82.5464 10.5196 83.0156 10.609 83.4444 10.8026C83.8276 10.9757 84.1686 11.2275 84.4453 11.5407L85.0019 11.0089C84.653 10.6202 84.2258 10.3076 83.7473 10.0919ZM82.0917 18.522C81.4911 18.5335 80.8943 18.4244 80.3373 18.2014C79.7793 17.978 79.2727 17.6449 78.848 17.2221C78.4232 16.7993 78.0891 16.2956 77.8658 15.7413C77.6428 15.188 77.5348 14.5957 77.5482 14C77.5348 13.4043 77.6428 12.812 77.8658 12.2587C78.0891 11.7044 78.4232 11.2007 78.848 10.7779C79.2727 10.3551 79.7793 10.022 80.3373 9.79861C80.8942 9.5756 81.4908 9.46654 82.0913 9.47797C82.7019 9.46343 83.308 9.58615 83.8641 9.83696C84.4211 10.0882 84.9136 10.4614 85.3044 10.9286L85.3881 11.0286L84.4195 11.9541L84.323 11.8326C84.0583 11.4991 83.7169 11.2333 83.3275 11.0575C82.938 10.8816 82.5118 10.8008 82.0845 10.8218L82.0738 10.8223C81.6598 10.8117 81.2479 10.884 80.8631 11.0359C80.4792 11.1873 80.1303 11.4142 79.8372 11.7029C79.2506 12.3401 78.9253 13.1719 78.9253 14.035C78.9253 14.8981 79.2506 15.7299 79.8372 16.3671C80.1303 16.6558 80.4792 16.8827 80.8631 17.0341C81.2479 17.1859 81.6598 17.2587 82.0739 17.248L82.0763 17.248C82.5519 17.2438 83.0207 17.1345 83.4485 16.9281C83.8763 16.7216 84.2524 16.4232 84.5494 16.0546L84.6479 15.9324L85.612 16.8889L85.5304 16.9871C85.1333 17.4651 84.6351 17.8506 84.0711 18.1165L84.0688 18.1175C83.4482 18.3964 82.7728 18.5346 82.0917 18.522ZM134.626 10.5474C134.184 10.1461 133.602 9.92874 133.003 9.93997L133 9.94H130.079V18.0575L133.181 18.004L133.186 18.004C133.818 18.0127 134.429 17.7804 134.894 17.3551L134.897 17.3523C135.127 17.154 135.31 16.908 135.434 16.6316C135.557 16.3552 135.617 16.0553 135.61 15.7531L135.61 15.7479C135.617 15.344 135.483 14.9502 135.231 14.6324L135.23 14.631C134.986 14.3135 134.65 14.0765 134.268 13.9509L133.919 13.8363L134.256 13.6898C134.568 13.5538 134.836 13.3334 135.028 13.0538C135.22 12.7671 135.32 12.429 135.314 12.0845V12.0793C135.32 11.7901 135.261 11.5032 135.143 11.2389C135.025 10.9746 134.849 10.7393 134.629 10.5497L134.626 10.5474ZM134.815 10.3395C134.32 9.89092 133.67 9.64777 132.999 9.66H129.797V18.3425L133.182 18.284L133.184 18.284C133.887 18.2931 134.567 18.0349 135.084 17.5623C135.344 17.3374 135.552 17.0583 135.692 16.745C135.831 16.4318 135.9 16.0919 135.893 15.7495L135.893 15.7521L135.752 15.75L135.893 15.7469L135.893 15.7495C135.899 15.2827 135.744 14.8277 135.454 14.4602C135.238 14.1803 134.96 13.9553 134.644 13.8015C134.888 13.6494 135.098 13.4486 135.261 13.2108L135.262 13.2097C135.486 12.8762 135.603 12.4829 135.596 12.0821L135.596 12.0847L135.455 12.082L135.596 12.0795L135.596 12.0821C135.602 11.7528 135.536 11.4262 135.401 11.1252C135.266 10.8239 135.066 10.5557 134.815 10.3395ZM60.1931 9.66H66.1192V17.024H67.0646V20.104H65.7383V18.34H59.5581V20.118H58.2318V17.038H59.2003C59.5711 16.6358 59.8521 16.1602 60.0246 15.6423C60.2034 15.1054 60.2612 14.536 60.1941 13.9745L60.1931 13.9663V9.66ZM60.4753 9.94V13.9498C60.5458 14.5493 60.4834 15.1569 60.2925 15.7301C60.1008 16.306 59.7839 16.833 59.3645 17.2741L59.3227 17.318H58.514V19.838H59.2759V18.06H66.0205V19.824H66.7824V17.304H65.837V9.94H60.4753ZM86.2541 9.66H92.3495V10.976H89.9932V18.34H88.6245V10.976H86.2541V9.66ZM86.5363 9.94V10.696H88.9067V18.06H89.711V10.696H92.0673V9.94H86.5363ZM98.3087 9.66H99.9046L96.6161 16.9333C96.4785 17.3765 96.2065 17.767 95.837 18.0512C95.4651 18.3373 95.0128 18.5018 94.5426 18.5219L94.5348 18.5222C94.2242 18.5183 93.9176 18.4522 93.6332 18.3282L93.5209 18.2792L93.8857 16.9941L94.0432 17.085C94.1935 17.1719 94.364 17.2184 94.5379 17.22L94.5472 17.2201C94.7216 17.2331 94.8959 17.1934 95.0467 17.1058C95.1944 16.9793 95.3084 16.8185 95.3785 16.6377L95.3816 16.6296L95.6656 16.0156L92.7801 9.674H94.3755L96.3689 14.2712L98.3087 9.66ZM98.4967 9.94L96.3728 14.9888L94.1897 9.954H93.2171L95.9756 16.0164L95.6402 16.7425C95.5516 16.9689 95.4073 17.1699 95.2203 17.3269L95.2117 17.3341L95.202 17.3399C95.0002 17.4607 94.7657 17.5166 94.5306 17.4999C94.3693 17.4979 94.2105 17.4657 94.0621 17.4056L93.86 18.1173C94.0758 18.1963 94.3038 18.2386 94.5344 18.242C94.9448 18.2236 95.3394 18.0797 95.6641 17.83C95.9898 17.5794 96.229 17.2346 96.3487 16.8433L96.3513 16.8348L99.4687 9.94H98.4967ZM100.773 9.66H107.179V18.34H105.81V10.976H102.142V18.34H100.773V9.66ZM101.055 9.94V18.06H101.86V10.696H106.093V18.06H106.897V9.94H101.055ZM108.83 9.66H110.199V13.258H114.149V9.66H115.518V18.34H114.149V14.546H110.199V18.34H108.83V9.66ZM109.112 9.94V18.06H109.916V14.266H114.431V18.06H115.236V9.94H114.431V13.538H109.916V9.94H109.112ZM69.8576 11.4928C70.4949 10.8631 71.3576 10.5096 72.257 10.5096C73.1564 10.5096 74.0192 10.8631 74.6565 11.4928L74.6616 11.4978C75.288 12.1829 75.6348 13.075 75.6348 14C75.6348 14.925 75.2878 15.8169 74.6615 16.5021L74.6566 16.5073C74.0193 17.137 73.1564 17.4904 72.257 17.4904C71.3576 17.4904 70.4949 17.1369 69.8576 16.5072L69.9571 16.408L69.8526 16.5021C69.2263 15.8169 68.8793 14.925 68.8793 14C68.8793 13.075 69.2263 12.1831 69.8526 11.4979L69.8576 11.4928ZM70.0592 16.3113C70.6434 16.8872 71.4335 17.2104 72.257 17.2104C73.0806 17.2104 73.8707 16.8872 74.4549 16.3113C75.0326 15.678 75.3526 14.8543 75.3526 14C75.3526 13.1457 75.0326 12.322 74.4549 11.6887C73.8707 11.1128 73.0806 10.7896 72.257 10.7896C71.4335 10.7896 70.6434 11.1128 70.0592 11.6887C69.4815 12.322 69.1615 13.1457 69.1615 14C69.1615 14.8543 69.4815 15.678 70.0592 16.3113ZM118.748 11.4928C119.386 10.8631 120.248 10.5096 121.148 10.5096C122.047 10.5096 122.91 10.8631 123.547 11.4928L123.552 11.4978C124.179 12.1829 124.526 13.075 124.526 14C124.526 14.925 124.179 15.8169 123.552 16.5021L123.547 16.5073C122.91 17.137 122.047 17.4904 121.148 17.4904C120.248 17.4904 119.386 17.1369 118.748 16.5072L118.848 16.408L118.743 16.5021C118.117 15.8169 117.77 14.925 117.77 14C117.77 13.075 118.117 12.1831 118.743 11.4979L118.748 11.4928ZM118.95 16.3113C119.534 16.8872 120.324 17.2104 121.148 17.2104C121.971 17.2104 122.761 16.8872 123.346 16.3113C123.923 15.678 124.243 14.8543 124.243 14C124.243 13.1457 123.923 12.322 123.346 11.6887C122.761 11.1128 121.971 10.7896 121.148 10.7896C120.324 10.7896 119.534 11.1128 118.95 11.6887C118.372 12.322 118.052 13.1457 118.052 14C118.052 14.8543 118.372 15.678 118.95 16.3113ZM133.097 10.654C133.295 10.6484 133.491 10.686 133.673 10.764C133.855 10.8419 134.017 10.9583 134.148 11.1048C134.277 11.2377 134.379 11.395 134.446 11.5674C134.514 11.7409 134.546 11.9262 134.54 12.1123C134.535 12.2983 134.491 12.4812 134.412 12.6502C134.335 12.8173 134.224 12.9672 134.087 13.0914C133.949 13.2391 133.781 13.3554 133.593 13.4325C133.405 13.51 133.201 13.546 132.997 13.538H130.881L130.943 10.654H133.097ZM133.561 11.021C133.417 10.959 133.26 10.9293 133.103 10.9339L133.099 10.934H131.219L131.169 13.258H133.006C133.17 13.2648 133.333 13.2361 133.485 13.1738C133.637 13.1115 133.773 13.0171 133.884 12.8972L133.888 12.8926L133.893 12.8883C134.004 12.7885 134.093 12.6676 134.156 12.5328C134.219 12.398 134.254 12.252 134.258 12.1035C134.263 11.9551 134.238 11.8072 134.183 11.6687C134.129 11.5303 134.048 11.4041 133.943 11.2976L133.938 11.2928C133.834 11.1759 133.705 11.083 133.561 11.021ZM61.2372 10.696H64.9481V17.36H60.3239L60.4533 17.1476C61.0283 16.2037 61.3016 15.1091 61.2375 14.0081L61.237 14L61.2372 10.696ZM61.5194 10.976V13.996C61.5813 15.0704 61.3374 16.1388 60.818 17.08H64.6659V10.976H61.5194ZM130.928 14.238H133.212C133.623 14.238 134.018 14.4002 134.309 14.6891C134.6 14.9779 134.764 15.3696 134.764 15.778L134.764 15.78C134.758 16.1702 134.604 16.5437 134.331 16.8251C134.191 16.9815 134.018 17.1055 133.824 17.1883C133.63 17.2712 133.421 17.3107 133.209 17.304H130.881L130.928 14.238ZM131.206 14.518L131.168 17.024H133.217C133.387 17.0297 133.556 16.998 133.713 16.9311C133.869 16.8643 134.009 16.7639 134.122 16.6373L134.126 16.6327C134.35 16.4025 134.477 16.0967 134.482 15.777C134.481 15.4432 134.348 15.1231 134.11 14.887C133.872 14.6507 133.549 14.518 133.212 14.518H131.206Z" fill="white"/>
</g>
<g id="Group_3">
<path id="Vector_4" d="M14.7305 10.556C14.2706 11.1035 14.0385 11.8045 14.0815 12.516V43.484C14.0385 44.1955 14.2706 44.8964 14.7305 45.444L14.8293 45.542L32.3114 28.21V27.804L14.8293 10.458L14.7305 10.556Z" fill="url(#paint0_linear_746_5982)"/>
<path id="Vector_5" d="M38.0966 33.992L32.3115 28.21V27.804L38.0966 22.008L38.2236 22.078L45.1515 25.984C47.1269 27.09 47.1269 28.91 45.1515 30.03L38.2518 33.922L38.0966 33.992Z" fill="url(#paint1_linear_746_5982)"/>
<path id="Vector_6" d="M38.2659 33.908L32.3115 28L14.7306 45.444C15.1332 45.7952 15.6469 45.9958 16.1828 46.0111C16.7186 46.0265 17.2431 45.8556 17.6654 45.528L38.28 33.908" fill="url(#paint2_linear_746_5982)"/>
<path id="Vector_7" d="M38.2658 22.092L17.6513 10.472C17.2289 10.1444 16.7045 9.97353 16.1686 9.98886C15.6327 10.0042 15.1191 10.2048 14.7164 10.556L32.3115 28L38.2658 22.092Z" fill="url(#paint3_linear_746_5982)"/>
<path id="Vector_8" opacity="0.2" d="M38.0966 33.782L17.6513 45.332C17.244 45.6342 16.749 45.7975 16.2403 45.7975C15.7317 45.7975 15.2367 45.6342 14.8294 45.332L14.7306 45.43L14.8294 45.528C15.2358 45.8324 15.7311 45.997 16.2403 45.997C16.7496 45.997 17.2449 45.8324 17.6513 45.528L38.2659 33.908L38.0966 33.782Z" fill="black"/>
<path id="Vector_9" opacity="0.12" d="M14.7305 45.248C14.2706 44.7004 14.0385 43.9995 14.0815 43.288V43.498C14.0385 44.2095 14.2706 44.9104 14.7305 45.458L14.8293 45.36L14.7305 45.248ZM45.1515 29.82L38.0965 33.782L38.2235 33.908L45.1515 30.016C45.5446 29.8328 45.882 29.5499 46.1297 29.196C46.3775 28.842 46.5267 28.4295 46.5624 28C46.4831 28.3902 46.3146 28.7571 46.07 29.0726C45.8254 29.3881 45.5112 29.6438 45.1515 29.82Z" fill="black"/>
<path id="Vector_10" opacity="0.25" d="M17.6514 10.6675L45.1516 26.1795C45.5113 26.3557 45.8256 26.6113 46.0702 26.9268C46.3148 27.2423 46.4832 27.6093 46.5626 27.9995C46.5269 27.57 46.3776 27.1575 46.1299 26.8035C45.8821 26.4496 45.5447 26.1667 45.1516 25.9835L17.6514 10.4715C15.676 9.36547 14.0675 10.2895 14.0675 12.5295V12.7395C14.1098 10.4855 15.6901 9.56147 17.6514 10.6675Z" fill="white"/>
</g>
</g>
</g>
</g>
</g>
<defs>
<linearGradient id="paint0_linear_746_5982" x1="30.7594" y1="12.194" x2="7.26808" y2="35.8697" gradientUnits="userSpaceOnUse">
<stop stop-color="#00A0FF"/>
<stop offset="0.01" stop-color="#00A1FF"/>
<stop offset="0.26" stop-color="#00BEFF"/>
<stop offset="0.51" stop-color="#00D2FF"/>
<stop offset="0.76" stop-color="#00DFFF"/>
<stop offset="1" stop-color="#00E3FF"/>
</linearGradient>
<linearGradient id="paint1_linear_746_5982" x1="47.7336" y1="28" x2="13.6018" y2="28" gradientUnits="userSpaceOnUse">
<stop stop-color="#FFE000"/>
<stop offset="0.41" stop-color="#FFBD00"/>
<stop offset="0.78" stop-color="#FFA500"/>
<stop offset="1" stop-color="#FF9C00"/>
</linearGradient>
<linearGradient id="paint2_linear_746_5982" x1="35.0347" y1="31.22" x2="3.17158" y2="63.3191" gradientUnits="userSpaceOnUse">
<stop stop-color="#FF3A44"/>
<stop offset="1" stop-color="#C31162"/>
</linearGradient>
<linearGradient id="paint3_linear_746_5982" x1="10.3" y1="0.251996" x2="24.5236" y2="14.5872" gradientUnits="userSpaceOnUse">
<stop stop-color="#32A071"/>
<stop offset="0.07" stop-color="#2DA771"/>
<stop offset="0.48" stop-color="#15CF74"/>
<stop offset="0.8" stop-color="#06E775"/>
<stop offset="1" stop-color="#00F076"/>
</linearGradient>
<clipPath id="clip0_746_5982">
<rect width="214" height="56" rx="16" fill="white"/>
</clipPath>
</defs>
</svg>
