<svg width="153" height="48" viewBox="0 0 153 48" fill="none" xmlns="http://www.w3.org/2000/svg">
<path d="M29.1942 2.96765C29.1942 2.96765 23.9152 4.10646 23.9654 18.2287C23.9576 18.4022 23.4504 27.0606 23.0938 30.5223C22.9666 30.5844 18.0943 32.9368 17.4292 33.4898C17.6792 33.3999 22.658 32.6417 22.658 32.6417C22.658 32.6417 22.0854 38.0735 19.6077 40.2725C19.5592 40.3325 18.0876 42.3167 13.0715 42.392C12.822 42.392 7.1105 43.2647 3.04967 40.6963C2.93806 40.5987 -0.55413 38.0784 2.17802 34.7612C2.22489 34.6865 3.05134 32.9172 6.0999 31.7936C7.70746 31.5106 9.36338 31.657 10.8929 32.2174C10.6496 32.02 6.60492 29.426 3.04967 32.6412C2.17155 33.297 1.4457 34.1274 0.920018 35.0775C0.394334 36.0276 0.0807639 37.0758 0 38.1531C0 38.2136 0.0558044 42.2218 6.53628 43.2401C6.61162 43.2614 13.1345 45.1289 19.1725 42.8163C20.8684 41.7058 22.2414 40.1852 23.1576 38.4023C24.0739 36.6194 24.5024 34.635 24.4013 32.6423C24.5341 32.5648 24.4013 32.2185 24.4013 32.2185H27.8873C27.8873 32.2185 27.8522 39.9175 29.6301 42.3926C29.836 41.3165 30.5017 32.6423 30.5017 32.6423H33.1161C32.6063 31.5011 31.6717 30.592 30.5017 30.099C30.5017 29.5536 30.5017 6.78334 30.5017 6.78334C30.5017 6.78334 27.9258 23.5939 27.8873 30.099C27.4666 30.0445 25.2729 30.099 25.2729 30.099C25.2729 30.099 26.1848 20.3744 26.1446 16.1093C26.1362 15.5911 26.192 4.58697 29.1942 2.96765Z" fill="#333333"/>
<path d="M35.2948 11.4459C35.2948 11.4459 33.2223 30.4354 33.5521 34.7616C33.5247 34.8374 35.4349 44.3515 41.8311 40.2702C41.1843 40.225 37.7932 41.8034 36.6023 35.1832C36.5253 34.8112 34.3473 18.8618 35.2948 11.4459Z" fill="#333333"/>
<path d="M67.974 6.35895C67.974 6.35895 66.1615 1.76443 62.7452 1.69571C62.6197 1.70716 59.8814 1.82661 57.5164 7.20435C57.464 7.35215 54.2865 15.638 53.1593 20.7698C53.1437 20.9045 51.8624 30.9989 52.2876 33.0633C52.3328 33.3633 52.9394 39.7211 56.6448 41.1179C56.8033 41.1817 60.6537 43.2112 64.488 39.846C68.3223 36.4808 69.7168 34.3374 69.7168 34.3374V33.9136L64.9238 37.7314L62.3094 39.4271C62.3094 39.4271 57.6777 41.6589 55.7731 36.8833C55.7017 36.7164 54.3005 32.7088 54.4662 29.2525C54.6319 25.7963 54.979 21.5192 56.209 17.3828C56.2809 17.0463 57.6827 9.51524 59.2592 6.78492C59.325 6.6213 60.9824 2.89833 62.7452 2.54545C62.7888 2.5329 64.4523 1.77479 67.974 6.35895Z" fill="#333333"/>
<path d="M69.7176 0C69.7176 0 74.5976 14.1932 73.2036 25.0114C73 25.1821 70.1534 28.4027 70.1534 28.4027L73.2036 26.2833C73.2036 26.2833 73.7533 36.3973 70.1534 40.6968C70.1043 40.7513 70.1534 41.1206 70.1534 41.1206H71.0251C71.0251 41.1206 76.3443 36.567 75.818 24.5876C76.1121 24.3367 78.8683 22.4681 78.8683 22.4681C78.8683 22.4681 80.1266 21.7591 79.7399 23.74C79.3532 25.721 77.9414 33.391 77.9972 33.4903C78.053 33.5896 77.3733 38.0646 79.3047 39.8492C79.3766 39.9354 81.202 41.7456 84.0976 39.4255C83.7544 39.4315 79.4073 41.3589 80.1763 36.0341C80.9453 30.7093 81.9191 24.5881 81.9191 24.5881V22.0443C81.9191 22.0443 81.7388 19.6271 79.3047 20.3487C78.9732 20.5259 75.3828 22.8925 75.3828 22.8925C75.3828 22.8925 74.7935 7.36302 69.7176 0Z" fill="#333333"/>
<path d="M86.7104 18.2289C86.7104 18.2289 83.9459 20.164 85.8388 22.0467C85.9794 22.152 88.1725 21.7669 87.5815 20.3511C86.9906 18.9352 86.3488 18.6532 86.7104 18.2289Z" fill="#333333"/>
<path d="M86.2752 25.0112L84.9683 36.0334C84.9683 36.0334 84.365 40.2521 88.4543 40.2723C89.2926 40.2401 90.1144 40.0346 90.8655 39.6693C91.6165 39.3039 92.2798 38.7871 92.8115 38.1529C92.4421 38.1851 86.6173 40.2532 86.711 34.335C86.805 31.2199 86.6594 28.1023 86.2752 25.0085V25.0112Z" fill="#333333"/>
<path d="M90.633 25.0114C90.633 25.0114 93.6302 20.1147 98.0404 20.7719C98.1687 20.7556 101.806 20.5625 102.833 24.5898C102.859 24.7327 103.902 28.8696 99.3473 30.9487C99.4394 31.4903 101.661 41.2521 113.727 44.5142C113.927 44.5894 127.43 47.0863 138.128 43.666C138.335 43.6219 146.15 42.0113 149.456 39.0028C149.609 38.8806 152.403 37.8236 151.633 33.9158C151.878 34.2092 154.02 37.57 149.456 41.1223C149.271 41.2177 140.464 46.7312 132.898 47.0574C132.713 47.0574 122.42 49.6634 112.418 46.2093C112.188 46.0909 102.098 44.0582 98.0387 31.7958C98.099 33.5471 98.3177 37.5836 95.8624 39.8504C95.6525 39.1184 95.4265 34.7633 95.4265 34.7633C95.4265 34.7633 96.3244 26.5047 95.4265 22.4698C96.2569 23.7319 97.8082 28.5937 98.0409 30.1006C98.5906 29.9823 102.561 29.469 101.527 23.7417C101.471 23.4799 100.294 21.1357 96.734 21.6222C96.6364 21.6162 94.1453 21.6261 90.633 25.0114Z" fill="#333333"/>
<path d="M111.112 22.0439C111.112 22.0439 106.124 21.0998 105.012 30.5223C105.031 30.7727 104.774 36.6162 109.805 38.5769C109.923 38.626 115.981 39.148 117.212 32.6418C117.238 32.4531 118.44 28.6112 114.598 24.1634C115.047 25.7576 116.872 33.0077 112.421 35.6093C112.338 35.6639 109.382 37.9339 107.193 33.0656C106.387 30.8732 106.387 28.4752 107.193 26.2828C107.234 26.147 107.853 23.7483 111.112 22.0439Z" fill="#333333"/>
<path d="M128.541 22.8919C128.541 22.8919 123.346 18.0525 119.826 27.1308C119.746 27.3713 117.748 33.3812 121.134 36.8811C121.245 37.0807 124.73 39.6125 127.669 36.4573C127.763 36.3766 129.734 35.6904 128.541 37.3054C128.374 37.4069 126.365 39.4249 126.365 39.4249C126.365 39.4249 124.595 40.4721 126.8 41.1206C126.955 41.0933 128.754 41.3933 130.287 38.153C130.347 37.9539 132.355 35.5454 129.415 34.7616C129.274 34.7104 129.12 34.7104 128.979 34.7616C128.979 34.7616 132.655 27.974 127.236 23.3157C127.393 24.0661 128.764 28.9334 127.672 31.7941C126.959 31.2022 126.367 30.4829 125.929 29.6746C126.035 30.5849 126.706 32.8538 126.801 33.4925C126.664 34.2413 124.439 38.4475 121.572 34.3406C121.485 34.177 119.482 30.1955 122.008 25.0141C122.082 24.8755 124.05 20.5564 128.541 22.8919Z" fill="#333333"/>
</svg>
