<svg width="153" height="48" viewBox="0 0 153 48" fill="none" xmlns="http://www.w3.org/2000/svg">
<g clip-path="url(#clip0_68_12)">
<path d="M29.1942 2.96753C29.1942 2.96753 23.9152 4.10634 23.9654 18.2286C23.9576 18.4021 23.4504 27.0605 23.0938 30.5222C22.9666 30.5843 18.0943 32.9367 17.4292 33.4897C17.6792 33.3998 22.658 32.6416 22.658 32.6416C22.658 32.6416 22.0854 38.0734 19.6077 40.2724C19.5592 40.3324 18.0876 42.3166 13.0715 42.3919C12.822 42.3919 7.1105 43.2646 3.04967 40.6962C2.93806 40.5986 -0.55413 38.0783 2.17802 34.7611C2.22489 34.6864 3.05134 32.9171 6.0999 31.7935C7.70746 31.5105 9.36338 31.6569 10.8929 32.2173C10.6496 32.0199 6.60492 29.4259 3.04967 32.6411C2.17155 33.2969 1.4457 34.1273 0.920018 35.0774C0.394334 36.0275 0.0807639 37.0757 0 38.153C0 38.2135 0.0558047 42.2217 6.53628 43.24C6.61162 43.2613 13.1345 45.1288 19.1725 42.8162C20.8684 41.7057 22.2414 40.1851 23.1576 38.4022C24.0739 36.6193 24.5024 34.6349 24.4013 32.6422C24.5341 32.5647 24.4013 32.2184 24.4013 32.2184H27.8873C27.8873 32.2184 27.8522 39.9174 29.6301 42.3925C29.836 41.3164 30.5017 32.6422 30.5017 32.6422H33.1161C32.6063 31.501 31.6717 30.5919 30.5017 30.0989C30.5017 29.5535 30.5017 6.78322 30.5017 6.78322C30.5017 6.78322 27.9258 23.5938 27.8873 30.0989C27.4666 30.0444 25.2729 30.0989 25.2729 30.0989C25.2729 30.0989 26.1848 20.3743 26.1446 16.1092C26.1362 15.591 26.192 4.58685 29.1942 2.96753Z" fill="url(#paint0_linear_68_12)"/>
<path d="M35.2948 11.4458C35.2948 11.4458 33.2223 30.4353 33.5521 34.7615C33.5247 34.8373 35.4349 44.3514 41.8311 40.2701C41.1843 40.2249 37.7932 41.8033 36.6023 35.1831C36.5253 34.8111 34.3473 18.8617 35.2948 11.4458Z" fill="url(#paint1_linear_68_12)"/>
<path d="M67.974 6.35904C67.974 6.35904 66.1615 1.76452 62.7452 1.6958C62.6197 1.70725 59.8814 1.8267 57.5164 7.20444C57.464 7.35224 54.2865 15.6381 53.1593 20.7699C53.1437 20.9046 51.8624 30.999 52.2876 33.0634C52.3328 33.3634 52.9394 39.7212 56.6448 41.118C56.8033 41.1818 60.6537 43.2113 64.488 39.8461C68.3223 36.4809 69.7168 34.3375 69.7168 34.3375V33.9137L64.9238 37.7315L62.3094 39.4272C62.3094 39.4272 57.6777 41.659 55.7731 36.8834C55.7017 36.7165 54.3005 32.7089 54.4662 29.2526C54.6319 25.7964 54.979 21.5193 56.209 17.3829C56.2809 17.0464 57.6827 9.51533 59.2592 6.78501C59.325 6.62139 60.9824 2.89842 62.7452 2.54554C62.7888 2.53299 64.4523 1.77488 67.974 6.35904Z" fill="url(#paint2_linear_68_12)"/>
<path d="M69.7176 0C69.7176 0 74.5976 14.1932 73.2036 25.0114C73 25.1821 70.1534 28.4027 70.1534 28.4027L73.2036 26.2833C73.2036 26.2833 73.7533 36.3973 70.1534 40.6968C70.1043 40.7513 70.1534 41.1206 70.1534 41.1206H71.0251C71.0251 41.1206 76.3443 36.567 75.818 24.5876C76.1121 24.3367 78.8683 22.4681 78.8683 22.4681C78.8683 22.4681 80.1266 21.7591 79.7399 23.74C79.3532 25.721 77.9414 33.391 77.9972 33.4903C78.053 33.5896 77.3733 38.0646 79.3047 39.8492C79.3766 39.9354 81.202 41.7456 84.0976 39.4255C83.7544 39.4315 79.4073 41.3589 80.1763 36.0341C80.9453 30.7093 81.9191 24.5881 81.9191 24.5881V22.0443C81.9191 22.0443 81.7388 19.6271 79.3047 20.3487C78.9732 20.5259 75.3828 22.8925 75.3828 22.8925C75.3828 22.8925 74.7935 7.36302 69.7176 0Z" fill="url(#paint3_linear_68_12)"/>
<path d="M86.7104 18.229C86.7104 18.229 83.9459 20.1641 85.8388 22.0468C85.9794 22.1521 88.1725 21.767 87.5815 20.3512C86.9906 18.9353 86.3488 18.6533 86.7104 18.229Z" fill="url(#paint4_linear_68_12)"/>
<path d="M86.2752 25.0112L84.9683 36.0334C84.9683 36.0334 84.365 40.2522 88.4543 40.2723C89.2926 40.2401 90.1144 40.0346 90.8655 39.6693C91.6165 39.3039 92.2798 38.7871 92.8115 38.1529C92.4421 38.1851 86.6173 40.2533 86.711 34.335C86.805 31.2199 86.6594 28.1023 86.2752 25.0085V25.0112Z" fill="url(#paint5_linear_68_12)"/>
<path d="M90.633 25.0114C90.633 25.0114 93.6302 20.1147 98.0404 20.7719C98.1687 20.7556 101.806 20.5625 102.833 24.5898C102.859 24.7327 103.902 28.8696 99.3473 30.9487C99.4394 31.4903 101.661 41.2521 113.727 44.5142C113.927 44.5894 127.43 47.0863 138.128 43.666C138.335 43.6219 146.15 42.0113 149.456 39.0028C149.609 38.8806 152.403 37.8236 151.633 33.9158C151.878 34.2092 154.02 37.57 149.456 41.1223C149.271 41.2177 140.464 46.7312 132.898 47.0574C132.713 47.0574 122.42 49.6634 112.418 46.2093C112.188 46.0909 102.098 44.0582 98.0387 31.7958C98.099 33.5471 98.3177 37.5836 95.8624 39.8504C95.6525 39.1184 95.4265 34.7633 95.4265 34.7633C95.4265 34.7633 96.3244 26.5047 95.4265 22.4698C96.2569 23.7319 97.8082 28.5937 98.0409 30.1006C98.5906 29.9823 102.561 29.469 101.527 23.7417C101.471 23.4799 100.294 21.1357 96.734 21.6222C96.6364 21.6162 94.1453 21.6261 90.633 25.0114Z" fill="url(#paint6_linear_68_12)"/>
<path d="M111.112 22.0439C111.112 22.0439 106.124 21.0998 105.012 30.5223C105.031 30.7727 104.774 36.6162 109.805 38.5769C109.923 38.626 115.981 39.148 117.212 32.6418C117.238 32.4531 118.44 28.6112 114.598 24.1634C115.047 25.7576 116.872 33.0077 112.421 35.6093C112.338 35.6639 109.382 37.9339 107.193 33.0656C106.387 30.8732 106.387 28.4752 107.193 26.2828C107.234 26.147 107.853 23.7483 111.112 22.0439Z" fill="url(#paint7_linear_68_12)"/>
<path d="M128.541 22.8918C128.541 22.8918 123.346 18.0524 119.826 27.1307C119.746 27.3712 117.748 33.3811 121.134 36.881C121.245 37.0806 124.73 39.6124 127.669 36.4572C127.763 36.3765 129.734 35.6903 128.541 37.3053C128.374 37.4068 126.365 39.4248 126.365 39.4248C126.365 39.4248 124.595 40.472 126.8 41.1205C126.955 41.0932 128.754 41.3932 130.287 38.1529C130.347 37.9538 132.355 35.5453 129.415 34.7615C129.274 34.7103 129.12 34.7103 128.979 34.7615C128.979 34.7615 132.655 27.9739 127.236 23.3156C127.393 24.066 128.764 28.9333 127.672 31.794C126.959 31.2021 126.367 30.4828 125.929 29.6745C126.035 30.5848 126.706 32.8537 126.801 33.4924C126.664 34.2412 124.439 38.4474 121.572 34.3405C121.485 34.1769 119.482 30.1954 122.008 25.014C122.082 24.8754 124.05 20.5563 128.541 22.8918Z" fill="url(#paint8_linear_68_12)"/>
</g>
<defs>
<linearGradient id="paint0_linear_68_12" x1="-1.73282" y1="2.96753" x2="33.6953" y2="44.8493" gradientUnits="userSpaceOnUse">
<stop stop-color="#FCA305"/>
<stop offset="1" stop-color="#FF8130"/>
</linearGradient>
<linearGradient id="paint1_linear_68_12" x1="33.0814" y1="11.4458" x2="51.366" y2="18.903" gradientUnits="userSpaceOnUse">
<stop stop-color="#FCA305"/>
<stop offset="1" stop-color="#FF8130"/>
</linearGradient>
<linearGradient id="paint2_linear_68_12" x1="51.2847" y1="1.6958" x2="83.1679" y2="22.0877" gradientUnits="userSpaceOnUse">
<stop stop-color="#FCA305"/>
<stop offset="1" stop-color="#FF8130"/>
</linearGradient>
<linearGradient id="paint3_linear_68_12" x1="68.9651" y1="6.66288e-07" x2="98.1905" y2="14.96" gradientUnits="userSpaceOnUse">
<stop stop-color="#FCA305"/>
<stop offset="1" stop-color="#FF8130"/>
</linearGradient>
<linearGradient id="paint4_linear_68_12" x1="85.0451" y1="18.229" x2="88.401" y2="21.4399" gradientUnits="userSpaceOnUse">
<stop stop-color="#FCA305"/>
<stop offset="1" stop-color="#FF8130"/>
</linearGradient>
<linearGradient id="paint5_linear_68_12" x1="84.5249" y1="25.0085" x2="97.3874" y2="34.7216" gradientUnits="userSpaceOnUse">
<stop stop-color="#FCA305"/>
<stop offset="1" stop-color="#FF8130"/>
</linearGradient>
<linearGradient id="paint6_linear_68_12" x1="87.4037" y1="20.7112" x2="100.64" y2="64.5294" gradientUnits="userSpaceOnUse">
<stop stop-color="#FCA305"/>
<stop offset="1" stop-color="#FF8130"/>
</linearGradient>
<linearGradient id="paint7_linear_68_12" x1="104.363" y1="22.0176" x2="118.838" y2="37.8536" gradientUnits="userSpaceOnUse">
<stop stop-color="#FCA305"/>
<stop offset="1" stop-color="#FF8130"/>
</linearGradient>
<linearGradient id="paint8_linear_68_12" x1="118.548" y1="21.6032" x2="135.529" y2="36.6859" gradientUnits="userSpaceOnUse">
<stop stop-color="#FCA305"/>
<stop offset="1" stop-color="#FF8130"/>
</linearGradient>
<clipPath id="clip0_68_12">
<rect width="153" height="48" fill="white"/>
</clipPath>
</defs>
</svg>
